<?xml version="1.0" standalone="no"?>
<!DOCTYPE svg PUBLIC "-//W3C//DTD SVG 20010904//EN"
 "http://www.w3.org/TR/2001/REC-SVG-20010904/DTD/svg10.dtd">
<svg version="1.0" xmlns="http://www.w3.org/2000/svg"
 width="1024.000000pt" height="1024.000000pt" viewBox="0 0 1024.000000 1024.000000"
 preserveAspectRatio="xMidYMid meet">
<metadata>
Created by potrace 1.11, written by Peter Selinger 2001-2013
</metadata>
<g transform="translate(0.000000,1024.000000) scale(0.100000,-0.100000)"
fill="#000000" stroke="none">
<path d="M2599 10235 c-2 -1 -60 -6 -129 -9 -69 -3 -136 -8 -150 -10 -14 -3
-52 -7 -85 -11 -63 -7 -113 -14 -149 -21 -11 -2 -37 -7 -56 -10 -19 -3 -43
-10 -53 -16 -10 -5 -21 -7 -24 -5 -6 6 -140 -42 -218 -79 -171 -80 -299 -207
-391 -384 -15 -30 -29 -57 -29 -60 -2 -5 -19 -50 -32 -80 -3 -8 -7 -19 -8 -25
-2 -5 -14 -50 -28 -100 -14 -49 -28 -106 -31 -125 -3 -19 -8 -46 -11 -60 -5
-25 -11 -66 -20 -142 -3 -24 -7 -59 -10 -78 -12 -86 -25 -279 -30 -443 -1 -71
-6 -131 -9 -134 -3 -3 -1 -13 4 -23 5 -10 6 -20 3 -24 -9 -9 -9 -796 0 -796 4
0 3 -8 -2 -19 -6 -10 -8 -21 -6 -23 3 -3 8 -182 10 -399 3 -217 8 -549 11
-739 3 -190 5 -352 5 -360 0 -8 0 -40 0 -70 1 -30 2 -643 3 -1363 1 -883 -2
-1307 -9 -1307 -7 0 -7 -3 0 -8 12 -8 14 -282 2 -282 -5 0 -5 -5 -1 -11 9 -14
9 -274 0 -288 -4 -5 -2 -12 3 -15 5 -3 5 -21 1 -41 -4 -20 -4 -38 1 -41 5 -3
6 -10 3 -16 -10 -15 -10 -108 -1 -108 4 0 4 -8 0 -17 -5 -10 -8 -167 -8 -350
0 -182 -3 -329 -7 -327 -5 3 -4 -5 1 -18 12 -31 11 -40 -2 -57 -9 -12 -9 -13
0 -7 8 4 13 1 13 -9 0 -9 -5 -13 -11 -9 -8 4 -8 1 -1 -13 6 -11 7 -25 2 -33
-5 -8 -6 -19 -2 -24 11 -18 11 -57 0 -50 -6 4 -6 -1 1 -14 7 -14 8 -23 1 -27
-5 -3 -10 -12 -10 -18 0 -7 4 -6 10 3 8 13 10 12 10 -2 0 -10 -5 -18 -10 -18
-7 0 -7 -6 -1 -18 7 -13 6 -23 -2 -32 -9 -10 -9 -11 0 -6 7 4 13 2 13 -3 0 -6
-5 -11 -10 -11 -7 0 -7 -6 0 -20 8 -15 8 -20 -1 -20 -8 0 -9 -4 0 -13 8 -10 7
-17 -2 -27 -6 -7 -7 -10 -2 -7 6 3 10 -8 11 -25 1 -20 -2 -25 -7 -16 -7 9 -8
7 -6 -7 1 -11 6 -26 10 -32 5 -7 4 -13 -1 -13 -13 0 -10 -33 3 -42 6 -5 4 -8
-5 -8 -13 0 -13 -1 0 -10 12 -8 12 -10 -5 -11 l-20 0 20 -9 c11 -5 14 -9 7 -9
-10 -1 -10 -6 -2 -21 8 -15 8 -20 -2 -20 -9 0 -9 -3 2 -10 11 -7 11 -10 2 -10
-8 0 -10 -5 -5 -12 11 -18 11 -92 0 -99 -5 -4 -4 -16 3 -29 8 -15 8 -20 1 -16
-6 4 -11 3 -11 -3 0 -5 5 -13 12 -17 8 -5 6 -10 -8 -15 -17 -7 -18 -8 -1 -8
17 -1 17 -3 3 -16 -13 -13 -13 -20 -3 -37 10 -16 9 -22 -1 -25 -10 -4 -8 -9 5
-20 14 -11 15 -14 2 -10 -9 3 -16 -1 -16 -9 0 -7 4 -11 9 -8 13 8 9 -31 -4
-45 -10 -11 -10 -13 -1 -7 17 10 17 -35 1 -53 -10 -11 -10 -13 -1 -7 17 10 17
-35 1 -53 -10 -11 -10 -13 -1 -7 8 5 13 1 13 -9 0 -10 -5 -13 -12 -9 -7 4 -4
-3 7 -16 15 -17 16 -22 5 -18 -12 4 -16 -1 -16 -17 0 -13 3 -22 7 -20 3 3 7
-16 7 -40 1 -25 -3 -45 -8 -45 -6 0 -10 -5 -10 -11 0 -5 5 -7 10 -4 11 7 14
-8 3 -19 -11 -10 -12 -37 -2 -30 5 3 9 -2 9 -11 0 -9 -4 -13 -10 -10 -5 3 -10
1 -10 -4 0 -6 4 -11 10 -11 5 0 9 -16 8 -35 -1 -19 -4 -32 -8 -30 -4 2 -7 -2
-7 -10 0 -8 4 -12 9 -9 4 3 8 -7 8 -21 0 -14 -4 -24 -8 -21 -5 3 -9 -1 -9 -9
0 -8 4 -12 9 -9 4 3 8 -2 8 -10 0 -9 -5 -15 -12 -14 -6 2 -13 -6 -15 -17 l-3
-20 9 20 c12 25 13 22 16 -45 2 -36 0 -48 -5 -35 -8 19 -9 19 -9 -2 -1 -13 4
-23 9 -23 6 0 10 -8 10 -18 0 -18 14 -19 231 -20 127 -1 235 -4 239 -7 5 -3
11 -1 15 5 4 7 12 7 26 0 13 -8 19 -7 19 0 0 6 5 8 10 5 24 -15 5600 -26 5785
-12 55 4 123 9 150 12 28 3 70 7 95 10 25 2 54 6 66 9 12 2 45 7 75 11 58 7
239 44 249 50 4 2 17 6 31 9 37 7 174 54 238 82 31 14 68 30 84 37 15 6 27 15
27 19 0 5 7 8 15 8 8 0 15 5 15 12 0 6 3 9 6 5 22 -22 258 190 325 293 62 94
130 229 145 289 2 9 13 48 24 86 27 94 54 227 65 325 3 25 7 68 10 95 14 122
19 338 16 710 -1 220 -4 2135 -6 4255 -2 2120 -4 3868 -4 3883 l-1 28 -3249
-1 c-1787 -1 -3250 -3 -3252 -5z"/>
<path d="M1136 1067 c3 -10 9 -15 12 -12 3 3 0 11 -7 18 -10 9 -11 8 -5 -6z"/>
<path d="M1126 123 c-6 -14 -5 -15 5 -6 7 7 10 15 7 18 -3 3 -9 -2 -12 -12z"/>
</g>
</svg>
