<?xml version="1.0" encoding="UTF-8" standalone="no"?>
<!-- Created with Inkscape (http://www.inkscape.org/) -->
<svg xmlns:rdf="http://www.w3.org/1999/02/22-rdf-syntax-ns#" xmlns="http://www.w3.org/2000/svg" height="512" width="400" version="1.1" xmlns:cc="http://creativecommons.org/ns#" xmlns:xlink="http://www.w3.org/1999/xlink" xmlns:dc="http://purl.org/dc/elements/1.1/">
 <defs>
  <radialGradient id="a" gradientUnits="userSpaceOnUse" cy="514.25" cx="346.79" gradientTransform="matrix(3.2644 0 0 5.1395 -618.81 -2307)" r="48.529">
   <stop stop-color="#fff" offset="0"/>
   <stop stop-color="#a94436" offset="1"/>
  </radialGradient>
  <linearGradient id="b" y2="487.39" gradientUnits="userSpaceOnUse" x2="394.53" gradientTransform="matrix(3.2644 0 0 3.2493 -618.81 -1335)" y1="502.29" x1="366.09">
   <stop stop-color="#fff" offset="0"/>
   <stop stop-color="#c0815e" offset="1"/>
  </linearGradient>
 </defs>
 <metadata>
  <rdf:RDF>
   <cc:Work rdf:about="">
    <dc:format>image/svg+xml</dc:format>
    <dc:type rdf:resource="http://purl.org/dc/dcmitype/StillImage"/>
    <dc:title/>
   </cc:Work>
  </rdf:RDF>
 </metadata>
 <g transform="translate(-273.27 -81.518)">
  <path d="m279.67 587.53s0.77592-121.27 0.77592-244.55c0-238.79-20.214-256.57 87.424-256.57h299.61v344.43c0 113.38 21.293 157.8-98.416 157.8s-289.39-1.1017-289.39-1.1017z" fill="#a62c39"/>
 </g>
 <g transform="translate(-273.27 -81.518)">
  <path fill="url(#b)" d="m526.69 131.45s19.198 3.8219 35.837 31.849 104.95 245.88 104.95 245.88v-177.08l-81.913-132.49 23.038 28.027 43.516-35.671-56.315-3.8219z"/>
 </g>
 <g transform="translate(-273.27 -81.518)">
  <path opacity=".66822" d="m356.47 89.41s126.71 84.082 188.14 100.64c61.435 16.562 125.43 34.397 125.43 34.397l-145.91 356.71 62.715 2.5479 81.913-201.29-2.5598-294.29z" fill="url(#a)"/>
  <path d="m474.22 465.23 131.81 126.19-245.72-5.1588s-7.6793-77.712-5.1196-118.48c2.5598-40.767 15.359-40.767 15.359-40.767z" fill-opacity=".43961" fill="#fff"/>
 </g>
 <g transform="translate(-273.27 -81.518)">
  <path d="m595.8 588.81-119.02-122.31-108.8-40.76-84.47-187.28 89.59-149.05l-60.155-2.5479-24.318 22.931-8.9592 17.836-6.3994 463.72z" fill-opacity=".36232"/>
  <path opacity=".5" d="m668.76 393.89s-120.31 38.219-191.98 73.89c-71.674 35.671-110.07 122.3-110.07 122.3s153.59-7.6438 211.18-5.0959c57.595 2.5479 84.473 2.5479 89.592-77.712 5.1196-80.26 1.2799-113.38 1.2799-113.38z" fill="#83222d"/>
 </g>
 <g fill="#fff" transform="translate(-273.27 -81.518)">
  <path d="m316.76 469.97v75.242h19.281v-19.598l17.546 17.465h29.584l-23.463-23.355s16.88-0.27133 18.158-24.573c0-22.294-16.901-25.182-36.419-25.182h-24.687zm20.199 20.41h16.628v13.404h-16.628v-13.404z"/>
  <path d="m420.4 470.28c-10.556-0.0591-25.197 0.91495-25.197 20.714v52.294h19.791v-12.794h19.179v12.49h19.893v-54.832c0-17.199-19.197-17.871-29.482-17.871-1.2857 0-2.6745 0.01-4.1826 0zm-5.1007 18.887h18.566v20.613h-18.566v-20.613z"/>
  <rect height="71.979" width="20.478" y="470.33" x="473.9"/>
  <path d="m515.81 471.28v71.979h49.276v-19.11h-29.117v-53.188z"/>
  <path d="m630.36 470.64v19.428h-32.957v7.0068h14.079c7.3594 0 22.718-0.31844 22.718 22.613s-10.559 24.205-31.997 24.205h-25.918v-17.517h29.757c8.9592 0 9.4533-2.903 9.4533-5.4326 0-2.5297-4.5806-3.7063-13.896-3.7063-9.3158 0-26.594-4.5562-26.594-22.392s8.9592-24.524 26.878-24.524c17.918 0 28.477 0.31843 28.477 0.31843z"/>
 </g>
 <g transform="translate(-273.27 -81.518)" fill="#fff">
  <path d="m334.71 448.67h170.23s-37.757-85.356-28.158-163.7c9.5992-78.349 71.674-114.02 106.87-117.84 35.197-3.8219 54.395 17.836 54.395 17.836l7.6793-11.466s-50.556-50.959-114.55-45.226c-63.994 5.7329-108.15 47.774-135.67 98.733-27.518 50.959-43.516 86.63-54.395 140.14-10.879 53.507-6.3994 81.534-6.3994 81.534z"/>
  <path d="m300.79 363.31 33.277 2.5479-5.7595 33.123-31.357-3.8219z"/>
  <path d="m353.27 293.24 8.9592-24.842-29.437-11.466-9.5992 26.753z"/>
  <path d="m394.86 207.89 17.28-20.38-22.4-14.65-17.92 19.74z"/>
  <path d="m440.3 128.9 15.359 18.473 21.118-12.103-15.359-17.199z"/>
  <path d="m515.17 107.88 3.8397 18.473 26.238-0.637-2.5598-16.562z"/>
  <path d="m604.12 127.63-0.63997 11.466 17.918 9.5548 3.8397-5.7329z"/>
  <path d="m600.28 176.68v9.5548l17.278 1.911v-7.6438z"/>
  <path d="m545.25 184.96 8.3192 15.288 12.159-9.5548-2.5598-10.192z"/>
  <path d="m519.01 204.7 12.799 19.11-7.6794 13.377-18.558-20.383z"/>
  <path d="m493.41 257.57-8.3193 16.562 21.758 18.473 5.1196-21.02z"/>
  <path d="m484.45 315.54-1.2799 22.294 26.878 11.466-1.2799-21.02z"/>
  <path d="m492.13 394.53 6.3994 22.931 33.917 1.911-12.159-24.842z"/>
 </g>
 <g transform="translate(-273.27 -81.518)">
  <path d="m279.67 587.53s0.77592-121.27 0.77592-244.55c0-238.79-20.214-256.57 87.424-256.57h299.61v344.43c0 113.38 16.173 157.8-98.416 157.8s-289.39-1.1017-289.39-1.1017z" stroke="#5e000e" stroke-width="9.7706" fill="none"/>
 </g>
</svg>
