<?xml version="1.0" encoding="UTF-8" standalone="no"?>
<!-- Generator: Adobe Illustrator 12.0.1, SVG Export Plug-In . SVG Version: 6.00 Build 51448)  -->
<svg xmlns:rdf="http://www.w3.org/1999/02/22-rdf-syntax-ns#" xmlns="http://www.w3.org/2000/svg" xml:space="preserve" overflow="visible" height="512" viewBox="0 0 511.99999 512" width="512" version="1.1" enable-background="new 0 0 198.13 197.58" xmlns:cc="http://creativecommons.org/ns#" xmlns:xlink="http://www.w3.org/1999/xlink" xmlns:dc="http://purl.org/dc/elements/1.1/"><metadata><rdf:RDF><cc:Work rdf:about=""><dc:format>image/svg+xml</dc:format><dc:type rdf:resource="http://purl.org/dc/dcmitype/StillImage"/><dc:title/></cc:Work></rdf:RDF></metadata><defs><linearGradient id="p" y2="117.41" gradientUnits="userSpaceOnUse" x2="141.03" y1="153.56" x1="194.9"><stop stop-color="#871101" offset="0"/><stop stop-color="#911209" offset=".99"/><stop stop-color="#911209" offset="1"/></linearGradient><linearGradient id="o" y2="181.64" gradientUnits="userSpaceOnUse" x2="97.93" y1="217.79" x1="151.8"><stop stop-color="#871101" offset="0"/><stop stop-color="#911209" offset=".99"/><stop stop-color="#911209" offset="1"/></linearGradient><linearGradient id="n" y2="181.66" gradientUnits="userSpaceOnUse" x2="47.047" y1="127.39" x1="38.696"><stop stop-color="#fff" offset="0"/><stop stop-color="#E57252" offset=".23"/><stop stop-color="#DE3B20" offset=".46"/><stop stop-color="#A60003" offset=".99"/><stop stop-color="#A60003" offset="1"/></linearGradient><linearGradient id="m" y2="132.1" gradientUnits="userSpaceOnUse" x2="99.21" y1="76.715" x1="96.133"><stop stop-color="#fff" offset="0"/><stop stop-color="#E4714E" offset=".23"/><stop stop-color="#BE1A0D" offset=".56"/><stop stop-color="#A80D00" offset=".99"/><stop stop-color="#A80D00" offset="1"/></linearGradient><linearGradient id="l" y2="65.216" gradientUnits="userSpaceOnUse" x2="156.31" y1="25.521" x1="147.1"><stop stop-color="#fff" offset="0"/><stop stop-color="#E46342" offset=".18"/><stop stop-color="#C82410" offset=".4"/><stop stop-color="#A80D00" offset=".99"/><stop stop-color="#A80D00" offset="1"/></linearGradient><linearGradient id="k" y2="-8.3048" gradientUnits="userSpaceOnUse" x2="158.67" y1="11.542" x1="118.98"><stop stop-color="#fff" offset="0"/><stop stop-color="#C81F11" offset=".54"/><stop stop-color="#BF0905" offset=".99"/><stop stop-color="#BF0905" offset="1"/></linearGradient><linearGradient id="j" y2="146.26" gradientUnits="userSpaceOnUse" x2="7.1702" y1="113.55" x1="3.9033"><stop stop-color="#fff" offset="0"/><stop stop-color="#DE4024" offset=".31"/><stop stop-color="#BF190B" offset=".99"/><stop stop-color="#BF190B" offset="1"/></linearGradient><linearGradient id="i" y2="-2.8093" gradientUnits="userSpaceOnUse" x2="135.02" gradientTransform="scale(2.5842 2.5914)" y1="155.1" x1="-18.556"><stop stop-color="#BD0012" offset="0"/><stop stop-color="#fff" offset=".07"/><stop stop-color="#fff" offset=".17"/><stop stop-color="#C82F1C" offset=".27"/><stop stop-color="#820C01" offset=".33"/><stop stop-color="#A31601" offset=".46"/><stop stop-color="#B31301" offset=".72"/><stop stop-color="#E82609" offset=".99"/><stop stop-color="#E82609" offset="1"/></linearGradient><linearGradient id="h" y2="159.62" gradientUnits="userSpaceOnUse" x2="52.818" gradientTransform="scale(2.5842 2.5914)" y1="171.03" x1="99.075"><stop stop-color="#8C0C01" offset="0"/><stop stop-color="#990C00" offset=".54"/><stop stop-color="#A80D0E" offset=".99"/><stop stop-color="#A80D0E" offset="1"/></linearGradient><linearGradient id="g" y2="78.684" gradientUnits="userSpaceOnUse" x2="137.43" gradientTransform="scale(2.5842 2.5914)" y1="115.51" x1="178.53"><stop stop-color="#7E110B" offset="0"/><stop stop-color="#9E0C00" offset=".99"/><stop stop-color="#9E0C00" offset="1"/></linearGradient><linearGradient id="f" y2="26.054" gradientUnits="userSpaceOnUse" x2="173.15" gradientTransform="scale(2.5842 2.5914)" y1="47.937" x1="193.62"><stop stop-color="#79130D" offset="0"/><stop stop-color="#9E120B" offset=".99"/><stop stop-color="#9E120B" offset="1"/></linearGradient><radialGradient id="e" gradientUnits="userSpaceOnUse" cy="79.388" cx="143.83" gradientTransform="scale(2.5842 2.5914)" r="50.358"><stop stop-color="#A80D00" offset="0"/><stop stop-color="#7E0E08" offset=".99"/><stop stop-color="#7E0E08" offset="1"/></radialGradient><radialGradient id="d" gradientUnits="userSpaceOnUse" cy="145.75" cx="74.092" gradientTransform="scale(2.5842 2.5914)" r="66.944"><stop stop-color="#A30C00" offset="0"/><stop stop-color="#800E08" offset=".99"/><stop stop-color="#800E08" offset="1"/></radialGradient><linearGradient id="c" y2="140.74" gradientUnits="userSpaceOnUse" x2="9.9887" gradientTransform="scale(2.5842 2.5914)" y1="197.34" x1="26.67"><stop stop-color="#8B2114" offset="0"/><stop stop-color="#9E100A" offset=".43"/><stop stop-color="#B3100C" offset=".99"/><stop stop-color="#B3100C" offset="1"/></linearGradient><linearGradient id="b" y2="26.306" gradientUnits="userSpaceOnUse" x2="192.04" gradientTransform="scale(2.5842 2.5914)" y1="9.7979" x1="154.64"><stop stop-color="#B31000" offset="0"/><stop stop-color="#910F08" offset=".44"/><stop stop-color="#791C12" offset=".99"/><stop stop-color="#791C12" offset="1"/></linearGradient><linearGradient id="a" y2="141.75" gradientUnits="userSpaceOnUse" y1="215.55" x2="132.28" x1="174.07"><stop stop-color="#FB7655" offset="0"/><stop stop-color="#E42B1E" offset=".41"/><stop stop-color="#900" offset=".99"/><stop stop-color="#900" offset="1"/></linearGradient></defs><g clip-rule="evenodd" fill-rule="evenodd"><polygon transform="scale(2.5842 2.5914)" points="40.38 197.58 186.85 187.64 198.13 39.95 153.5 130.41" fill="url(#a)"/><polygon transform="scale(2.5842 2.5914)" points="187.09 187.54 174.5 100.65 140.21 145.93" fill="url(#p)"/><polygon transform="scale(2.5842 2.5914)" points="187.26 187.54 95.03 180.3 40.87 197.39" fill="url(#o)"/><polygon transform="scale(2.5842 2.5914)" points="41 197.41 64.04 121.93 13.34 132.77" fill="url(#n)"/><polygon transform="scale(2.5842 2.5914)" points="140.2 146.18 119 63.14 58.33 120.01" fill="url(#m)"/><polygon transform="scale(2.5842 2.5914)" points="193.32 64.31 135.97 17.47 120 69.1" fill="url(#l)"/><polygon transform="scale(2.5842 2.5914)" points="166.5 0.77 132.77 19.41 111.49 0.52" fill="url(#k)"/><polygon transform="scale(2.5842 2.5914)" points="0 158.09 14.13 132.32 2.7 101.62" fill="url(#j)"/><path d="m5.0133 260.82 29.718 84.53 129.13-29.05 147.43-137.4 41.6-132.52-65.51-46.38-111.38 41.799c-35.09 32.728-103.18 97.491-105.63 98.701-2.432 1.25-44.968 81.86-65.357 120.32z" fill="#fff"/><path d="m109.36 108.97c76.05-75.619 174.1-120.29 211.72-82.227 37.6 38.067-2.27 130.58-78.32 206.17-76.06 75.59-172.88 122.73-210.48 84.66-37.629-38.04 1.03-133.01 77.08-208.6z" fill="url(#i)"/><path d="m105.95 511.48 59.07-196.22 196.19 63.21c-70.93 66.7-149.83 123.09-255.26 133.01z" fill="url(#h)"/><path d="m311.55 178.52 50.365 200.05c59.25-62.48 112.43-129.64 138.47-212.72l-188.85 12.672z" fill="url(#g)"/><path d="m499.88 166.86c20.16-61 24.81-148.51-70.24-164.76l-77.99 43.198 148.23 121.56z" fill="url(#f)"/><path d="m0 408.79c2.7909 100.68 75.225 102.18 106.08 103.06l-71.271-166.91-34.809 63.85z" fill="#9e1209"/><path d="m311.83 178.83c45.533 28.064 137.3 84.426 139.16 85.463 2.8917 1.6326 39.564-62.011 47.885-97.979l-187.04 12.516z" fill="url(#e)"/><path d="m164.95 315.26 78.972 152.79c46.696-25.395 83.262-56.336 116.75-89.48l-195.72-63.31z" fill="url(#d)"/><path d="m34.499 345.14-11.19 133.61c21.113 28.92 50.159 31.433 80.626 29.179-22.048-55.01-66.082-165.02-69.441-162.79z" fill="url(#c)"/><path d="m351.19 45.634 156.88 22.078c-8.37-35.579-34.08-58.539-77.91-65.717l-78.972 43.638z" fill="url(#b)"/></g></svg>
