<svg xmlns="http://www.w3.org/2000/svg"
     height="512"
     width="644"
     viewBox="0 0 644 512">
  <path d="m551.56 294.91v191.55q0 10.376-7.5823 17.958-7.5802 7.5802-17.96 7.5802h-153.24v-153.24h-102.16v153.24h-153.24q-10.376 0-17.958-7.5824-7.5823-7.5824-7.5823-17.958v-191.55q0-0.39911 0.19953-1.1972 0.19953-0.79811 0.19953-1.1972l229.45-189.17 229.47 189.15q0.39906 0.79812 0.39906 2.3944zm88.993-27.537-24.742 29.532q-3.1926 3.5917-8.3806 4.3898h-1.1972q-5.1879 0-8.3806-2.7934l-276.15-230.26-276.16 230.26q-4.7889 3.1926-9.5778 2.7934-5.1879-0.79811-8.3806-4.3898l-24.744-29.53q-3.1926-3.9907-2.7936-9.3782 0.39907-5.3874 4.3898-8.5801l286.94-239.03q12.77-10.38 30.331-10.38 17.56 0 30.331 10.376l97.374 81.411v-77.819q0-5.587 3.5917-9.1787t9.1787-3.5917h76.621q5.587 0 9.1787 3.5917t3.5917 9.1787v162.82l87.397 72.631q3.9907 3.1927 4.3898 8.5801 0.39908 5.3875-2.7934 9.3782z"/>
</svg>
