<svg xmlns="http://www.w3.org/2000/svg"
     height="512"
     width="512"
     viewBox="0 0 512 512">
  <path d="m407.27 46.546h-302.55q-24 0-41.091 17.091t-17.091 41.091v302.55q0 24 17.091 41.091t41.091 17.091h302.55q24 0 41.091-17.091t17.091-41.091v-302.55q0-24-17.091-41.091-17.09-17.093-41.09-17.093zm104.73 58.184v302.55q0 43.273-30.727 74t-74 30.727h-302.55q-43.273 0-74-30.727-30.72-30.73-30.72-74.01v-302.54q0-43.273 30.727-74 30.728-30.73 74.003-30.73h302.55q43.273 0 74 30.727 30.72 30.727 30.72 74.003z"/>
</svg>
