<svg xmlns="http://www.w3.org/2000/svg"
     height="512"
     width="512"
     viewBox="0 0 512 512">
  <path d="m411.38 4.8043q6.3215-6.3215 10.647-4.3252 4.3252 1.9963 4.3252 10.647v489.75q0 8.6504-4.3252 10.647-4.3252 1.9963-10.647-4.3252l-236.23-236.23q-2.9944-2.9944-4.3252-6.3215v225.58q0 8.6504-6.3215 14.972-6.3215 6.3215-14.972 6.3215h-42.587q-8.6505 0-14.972-6.3215t-6.3215-14.972v-468.46q0-8.6504 6.3215-14.972 6.3215-6.3215 14.972-6.3215h42.587q8.6504 0 14.972 6.3215 6.3215 6.3215 6.3215 14.972v225.58q1.3308-3.6599 4.3252-6.3215z"/>
</svg>
