<svg xmlns="http://www.w3.org/2000/svg"
     height="512"
     width="512"
     viewBox="0 0 512 512">
  <path d="m100.62 507.2q-6.3215 6.3215-10.647 4.3252-4.3252-1.9963-4.3252-10.647v-489.75q0-8.6504 4.3252-10.647 4.3252-1.9963 10.647 4.3252l236.23 236.22q2.6617 2.6616 4.3252 6.3215v-225.58q0-8.6504 6.3215-14.972 6.3215-6.3215 14.972-6.3215h42.587q8.6504 0 14.972 6.3215 6.3215 6.3215 6.3215 14.972v468.46q0 8.6504-6.3215 14.972-6.3215 6.3215-14.972 6.3215h-42.587q-8.6504 0-14.972-6.3215-6.3215-6.3215-6.3215-14.972v-225.58q-1.6636 3.3271-4.3252 6.3215z"/>
</svg>
