<svg xmlns="http://www.w3.org/2000/svg"
     height="512"
     width="532"
     viewBox="0 0 532 512">
  <path d="m3.29 439v-366c0-40.9 33.9-73 74.4-73h277c9 0.0618 19-0.34 26 3.06l0.953 0.526 2.58 1.61c6.57 4.86 11.2 14.7 17 24.2l122 200 3.69 5.57c8.66 15.5 5.44 30.5-3.13 44.1l-134 212c-12 21.2-22.2 20.6-38.9 20.6h-277c-41.1 0-75-32-75-72zm364 48c0.338-0.155 1.8-0.774 6.2-8.49l131-210c6.12-9.76 6.44-15.9 0.0615-24.1v-2l-121-201c-6.42-10.7-8.42-14.6-9.61-16.2l-1.2-1.17-1.05-0.31c-1.7-0.247-5.48-0.371-15.9-0.463h-277c-28.7 0-51.5 22.6-51.5 49.1v366c0 26.5 22.7 49.1 51.5 49.1h277c9.61 0 11.6-0.186 12.9-0.712z"/>
  <path d="m253 81.9c-25.2-0.724-50.8 6.55-70.9 22.2-32.1 23.8-51.1 64.7-46.4 105 3.79 36.6 25.7 71.1 57.9 88.9-19.2 39.9-40.2 79.1-58.2 120-0.542 9.04 10.8 11.9 17.8 9.49 8.42 0.252 20.3 1.98 24.9-7.19 18.3-36.5 35.9-73.4 54.7-110 13.6 1.67 27.3 0.101 41 0.537 0.005 35.4-0.593 70.8 0.47 106 2.38 14.8 20.7 8.44 30.8 10.4 9.86-1.37 14.4-13.1 11.6-21.8-0.235-105 0.526-210-0.397-315-3.36-9.06-14.8-8.35-22.4-7.49-13.6 0.414-27.2-0.54-40.7-0.453zm-8 45.1c9.54 0.205 19.1 0.485 28.6 0.389-0.027 47.7 0.0626 95.5-0.0585 143-21.2 0.32-44.9 2.92-63-10.7-30.4-19.9-42.3-64.2-23.5-95.9 11.5-20.9 33.7-36.7 57.9-36.9z"/>
</svg>
